<?xml version="1.0" encoding="utf-8" standalone="no"?>
<!DOCTYPE svg PUBLIC "-//W3C//DTD SVG 1.1//EN"
  "http://www.w3.org/Graphics/SVG/1.1/DTD/svg11.dtd">
<!-- Created with matplotlib (http://matplotlib.org/) -->
<svg height="576pt" version="1.1" viewBox="0 0 576 576" width="576pt" xmlns="http://www.w3.org/2000/svg" xmlns:xlink="http://www.w3.org/1999/xlink">
 <defs>
  <style type="text/css">
*{stroke-linecap:butt;stroke-linejoin:round;}
  </style>
 </defs>
 <g id="figure_1">
  <g id="patch_1">
   <path d="M 0 576 
L 576 576 
L 576 0 
L 0 0 
z
" style="fill:#ffffff;"/>
  </g>
  <g id="axes_1">
   <g id="patch_2">
    <path d="M 72 504 
L 518.4 504 
L 518.4 69.12 
L 72 69.12 
z
" style="fill:#ffffff;"/>
   </g>
   <g id="matplotlib.axis_1">
    <g id="xtick_1">
     <g id="line2d_1">
      <defs>
       <path d="M 0 0 
L 0 3.5 
" id="me66082c2d2" style="stroke:#000000;stroke-width:0.8;"/>
      </defs>
      <g>
       <use style="stroke:#000000;stroke-width:0.8;" x="82.157542" xlink:href="#me66082c2d2" y="504"/>
      </g>
     </g>
     <g id="text_1">
      <!-- $\mathdefault{10^{2}}$ -->
      <defs>
       <path d="M 12.40625 8.296875 
L 28.515625 8.296875 
L 28.515625 63.921875 
L 10.984375 60.40625 
L 10.984375 69.390625 
L 28.421875 72.90625 
L 38.28125 72.90625 
L 38.28125 8.296875 
L 54.390625 8.296875 
L 54.390625 0 
L 12.40625 0 
z
" id="DejaVuSans-31"/>
       <path d="M 31.78125 66.40625 
Q 24.171875 66.40625 20.328125 58.90625 
Q 16.5 51.421875 16.5 36.375 
Q 16.5 21.390625 20.328125 13.890625 
Q 24.171875 6.390625 31.78125 6.390625 
Q 39.453125 6.390625 43.28125 13.890625 
Q 47.125 21.390625 47.125 36.375 
Q 47.125 51.421875 43.28125 58.90625 
Q 39.453125 66.40625 31.78125 66.40625 
z
M 31.78125 74.21875 
Q 44.046875 74.21875 50.515625 64.515625 
Q 56.984375 54.828125 56.984375 36.375 
Q 56.984375 17.96875 50.515625 8.265625 
Q 44.046875 -1.421875 31.78125 -1.421875 
Q 19.53125 -1.421875 13.0625 8.265625 
Q 6.59375 17.96875 6.59375 36.375 
Q 6.59375 54.828125 13.0625 64.515625 
Q 19.53125 74.21875 31.78125 74.21875 
z
" id="DejaVuSans-30"/>
       <path d="M 19.1875 8.296875 
L 53.609375 8.296875 
L 53.609375 0 
L 7.328125 0 
L 7.328125 8.296875 
Q 12.9375 14.109375 22.625 23.890625 
Q 32.328125 33.6875 34.8125 36.53125 
Q 39.546875 41.84375 41.421875 45.53125 
Q 43.3125 49.21875 43.3125 52.78125 
Q 43.3125 58.59375 39.234375 62.25 
Q 35.15625 65.921875 28.609375 65.921875 
Q 23.96875 65.921875 18.8125 64.3125 
Q 13.671875 62.703125 7.8125 59.421875 
L 7.8125 69.390625 
Q 13.765625 71.78125 18.9375 73 
Q 24.125 74.21875 28.421875 74.21875 
Q 39.75 74.21875 46.484375 68.546875 
Q 53.21875 62.890625 53.21875 53.421875 
Q 53.21875 48.921875 51.53125 44.890625 
Q 49.859375 40.875 45.40625 35.40625 
Q 44.1875 33.984375 37.640625 27.21875 
Q 31.109375 20.453125 19.1875 8.296875 
z
" id="DejaVuSans-32"/>
      </defs>
      <g transform="translate(71.597542 520.118125)scale(0.12 -0.12)">
       <use transform="translate(0 0.765625)" xlink:href="#DejaVuSans-31"/>
       <use transform="translate(63.623047 0.765625)" xlink:href="#DejaVuSans-30"/>
       <use transform="translate(128.203125 39.046875)scale(0.7)" xlink:href="#DejaVuSans-32"/>
      </g>
     </g>
    </g>
    <g id="xtick_2">
     <g id="line2d_2">
      <g>
       <use style="stroke:#000000;stroke-width:0.8;" x="262.925089" xlink:href="#me66082c2d2" y="504"/>
      </g>
     </g>
     <g id="text_2">
      <!-- $\mathdefault{10^{3}}$ -->
      <defs>
       <path d="M 40.578125 39.3125 
Q 47.65625 37.796875 51.625 33 
Q 55.609375 28.21875 55.609375 21.1875 
Q 55.609375 10.40625 48.1875 4.484375 
Q 40.765625 -1.421875 27.09375 -1.421875 
Q 22.515625 -1.421875 17.65625 -0.515625 
Q 12.796875 0.390625 7.625 2.203125 
L 7.625 11.71875 
Q 11.71875 9.328125 16.59375 8.109375 
Q 21.484375 6.890625 26.8125 6.890625 
Q 36.078125 6.890625 40.9375 10.546875 
Q 45.796875 14.203125 45.796875 21.1875 
Q 45.796875 27.640625 41.28125 31.265625 
Q 36.765625 34.90625 28.71875 34.90625 
L 20.21875 34.90625 
L 20.21875 43.015625 
L 29.109375 43.015625 
Q 36.375 43.015625 40.234375 45.921875 
Q 44.09375 48.828125 44.09375 54.296875 
Q 44.09375 59.90625 40.109375 62.90625 
Q 36.140625 65.921875 28.71875 65.921875 
Q 24.65625 65.921875 20.015625 65.03125 
Q 15.375 64.15625 9.8125 62.3125 
L 9.8125 71.09375 
Q 15.4375 72.65625 20.34375 73.4375 
Q 25.25 74.21875 29.59375 74.21875 
Q 40.828125 74.21875 47.359375 69.109375 
Q 53.90625 64.015625 53.90625 55.328125 
Q 53.90625 49.265625 50.4375 45.09375 
Q 46.96875 40.921875 40.578125 39.3125 
z
" id="DejaVuSans-33"/>
      </defs>
      <g transform="translate(252.365089 520.118125)scale(0.12 -0.12)">
       <use transform="translate(0 0.765625)" xlink:href="#DejaVuSans-31"/>
       <use transform="translate(63.623047 0.765625)" xlink:href="#DejaVuSans-30"/>
       <use transform="translate(128.203125 39.046875)scale(0.7)" xlink:href="#DejaVuSans-33"/>
      </g>
     </g>
    </g>
    <g id="xtick_3">
     <g id="line2d_3">
      <g>
       <use style="stroke:#000000;stroke-width:0.8;" x="443.692637" xlink:href="#me66082c2d2" y="504"/>
      </g>
     </g>
     <g id="text_3">
      <!-- $\mathdefault{10^{4}}$ -->
      <defs>
       <path d="M 37.796875 64.3125 
L 12.890625 25.390625 
L 37.796875 25.390625 
z
M 35.203125 72.90625 
L 47.609375 72.90625 
L 47.609375 25.390625 
L 58.015625 25.390625 
L 58.015625 17.1875 
L 47.609375 17.1875 
L 47.609375 0 
L 37.796875 0 
L 37.796875 17.1875 
L 4.890625 17.1875 
L 4.890625 26.703125 
z
" id="DejaVuSans-34"/>
      </defs>
      <g transform="translate(433.132637 520.118125)scale(0.12 -0.12)">
       <use transform="translate(0 0.684375)" xlink:href="#DejaVuSans-31"/>
       <use transform="translate(63.623047 0.684375)" xlink:href="#DejaVuSans-30"/>
       <use transform="translate(128.203125 38.965625)scale(0.7)" xlink:href="#DejaVuSans-34"/>
      </g>
     </g>
    </g>
    <g id="xtick_4">
     <g id="line2d_4">
      <defs>
       <path d="M 0 0 
L 0 2 
" id="mff04046483" style="stroke:#000000;stroke-width:0.6;"/>
      </defs>
      <g>
       <use style="stroke:#000000;stroke-width:0.6;" x="73.886072" xlink:href="#mff04046483" y="504"/>
      </g>
     </g>
    </g>
    <g id="xtick_5">
     <g id="line2d_5">
      <g>
       <use style="stroke:#000000;stroke-width:0.6;" x="136.573996" xlink:href="#mff04046483" y="504"/>
      </g>
     </g>
    </g>
    <g id="xtick_6">
     <g id="line2d_6">
      <g>
       <use style="stroke:#000000;stroke-width:0.6;" x="168.405581" xlink:href="#mff04046483" y="504"/>
      </g>
     </g>
    </g>
    <g id="xtick_7">
     <g id="line2d_7">
      <g>
       <use style="stroke:#000000;stroke-width:0.6;" x="190.99045" xlink:href="#mff04046483" y="504"/>
      </g>
     </g>
    </g>
    <g id="xtick_8">
     <g id="line2d_8">
      <g>
       <use style="stroke:#000000;stroke-width:0.6;" x="208.508635" xlink:href="#mff04046483" y="504"/>
      </g>
     </g>
    </g>
    <g id="xtick_9">
     <g id="line2d_9">
      <g>
       <use style="stroke:#000000;stroke-width:0.6;" x="222.822035" xlink:href="#mff04046483" y="504"/>
      </g>
     </g>
    </g>
    <g id="xtick_10">
     <g id="line2d_10">
      <g>
       <use style="stroke:#000000;stroke-width:0.6;" x="234.923842" xlink:href="#mff04046483" y="504"/>
      </g>
     </g>
    </g>
    <g id="xtick_11">
     <g id="line2d_11">
      <g>
       <use style="stroke:#000000;stroke-width:0.6;" x="245.406904" xlink:href="#mff04046483" y="504"/>
      </g>
     </g>
    </g>
    <g id="xtick_12">
     <g id="line2d_12">
      <g>
       <use style="stroke:#000000;stroke-width:0.6;" x="254.65362" xlink:href="#mff04046483" y="504"/>
      </g>
     </g>
    </g>
    <g id="xtick_13">
     <g id="line2d_13">
      <g>
       <use style="stroke:#000000;stroke-width:0.6;" x="317.341543" xlink:href="#mff04046483" y="504"/>
      </g>
     </g>
    </g>
    <g id="xtick_14">
     <g id="line2d_14">
      <g>
       <use style="stroke:#000000;stroke-width:0.6;" x="349.173128" xlink:href="#mff04046483" y="504"/>
      </g>
     </g>
    </g>
    <g id="xtick_15">
     <g id="line2d_15">
      <g>
       <use style="stroke:#000000;stroke-width:0.6;" x="371.757997" xlink:href="#mff04046483" y="504"/>
      </g>
     </g>
    </g>
    <g id="xtick_16">
     <g id="line2d_16">
      <g>
       <use style="stroke:#000000;stroke-width:0.6;" x="389.276183" xlink:href="#mff04046483" y="504"/>
      </g>
     </g>
    </g>
    <g id="xtick_17">
     <g id="line2d_17">
      <g>
       <use style="stroke:#000000;stroke-width:0.6;" x="403.589582" xlink:href="#mff04046483" y="504"/>
      </g>
     </g>
    </g>
    <g id="xtick_18">
     <g id="line2d_18">
      <g>
       <use style="stroke:#000000;stroke-width:0.6;" x="415.691389" xlink:href="#mff04046483" y="504"/>
      </g>
     </g>
    </g>
    <g id="xtick_19">
     <g id="line2d_19">
      <g>
       <use style="stroke:#000000;stroke-width:0.6;" x="426.174451" xlink:href="#mff04046483" y="504"/>
      </g>
     </g>
    </g>
    <g id="xtick_20">
     <g id="line2d_20">
      <g>
       <use style="stroke:#000000;stroke-width:0.6;" x="435.421168" xlink:href="#mff04046483" y="504"/>
      </g>
     </g>
    </g>
    <g id="xtick_21">
     <g id="line2d_21">
      <g>
       <use style="stroke:#000000;stroke-width:0.6;" x="498.109091" xlink:href="#mff04046483" y="504"/>
      </g>
     </g>
    </g>
    <g id="text_4">
     <!-- Total Grid Points/Core -->
     <defs>
      <path d="M -0.296875 72.90625 
L 61.375 72.90625 
L 61.375 64.59375 
L 35.5 64.59375 
L 35.5 0 
L 25.59375 0 
L 25.59375 64.59375 
L -0.296875 64.59375 
z
" id="DejaVuSans-54"/>
      <path d="M 30.609375 48.390625 
Q 23.390625 48.390625 19.1875 42.75 
Q 14.984375 37.109375 14.984375 27.296875 
Q 14.984375 17.484375 19.15625 11.84375 
Q 23.34375 6.203125 30.609375 6.203125 
Q 37.796875 6.203125 41.984375 11.859375 
Q 46.1875 17.53125 46.1875 27.296875 
Q 46.1875 37.015625 41.984375 42.703125 
Q 37.796875 48.390625 30.609375 48.390625 
z
M 30.609375 56 
Q 42.328125 56 49.015625 48.375 
Q 55.71875 40.765625 55.71875 27.296875 
Q 55.71875 13.875 49.015625 6.21875 
Q 42.328125 -1.421875 30.609375 -1.421875 
Q 18.84375 -1.421875 12.171875 6.21875 
Q 5.515625 13.875 5.515625 27.296875 
Q 5.515625 40.765625 12.171875 48.375 
Q 18.84375 56 30.609375 56 
z
" id="DejaVuSans-6f"/>
      <path d="M 18.3125 70.21875 
L 18.3125 54.6875 
L 36.8125 54.6875 
L 36.8125 47.703125 
L 18.3125 47.703125 
L 18.3125 18.015625 
Q 18.3125 11.328125 20.140625 9.421875 
Q 21.96875 7.515625 27.59375 7.515625 
L 36.8125 7.515625 
L 36.8125 0 
L 27.59375 0 
Q 17.1875 0 13.234375 3.875 
Q 9.28125 7.765625 9.28125 18.015625 
L 9.28125 47.703125 
L 2.6875 47.703125 
L 2.6875 54.6875 
L 9.28125 54.6875 
L 9.28125 70.21875 
z
" id="DejaVuSans-74"/>
      <path d="M 34.28125 27.484375 
Q 23.390625 27.484375 19.1875 25 
Q 14.984375 22.515625 14.984375 16.5 
Q 14.984375 11.71875 18.140625 8.90625 
Q 21.296875 6.109375 26.703125 6.109375 
Q 34.1875 6.109375 38.703125 11.40625 
Q 43.21875 16.703125 43.21875 25.484375 
L 43.21875 27.484375 
z
M 52.203125 31.203125 
L 52.203125 0 
L 43.21875 0 
L 43.21875 8.296875 
Q 40.140625 3.328125 35.546875 0.953125 
Q 30.953125 -1.421875 24.3125 -1.421875 
Q 15.921875 -1.421875 10.953125 3.296875 
Q 6 8.015625 6 15.921875 
Q 6 25.140625 12.171875 29.828125 
Q 18.359375 34.515625 30.609375 34.515625 
L 43.21875 34.515625 
L 43.21875 35.40625 
Q 43.21875 41.609375 39.140625 45 
Q 35.0625 48.390625 27.6875 48.390625 
Q 23 48.390625 18.546875 47.265625 
Q 14.109375 46.140625 10.015625 43.890625 
L 10.015625 52.203125 
Q 14.9375 54.109375 19.578125 55.046875 
Q 24.21875 56 28.609375 56 
Q 40.484375 56 46.34375 49.84375 
Q 52.203125 43.703125 52.203125 31.203125 
z
" id="DejaVuSans-61"/>
      <path d="M 9.421875 75.984375 
L 18.40625 75.984375 
L 18.40625 0 
L 9.421875 0 
z
" id="DejaVuSans-6c"/>
      <path id="DejaVuSans-20"/>
      <path d="M 59.515625 10.40625 
L 59.515625 29.984375 
L 43.40625 29.984375 
L 43.40625 38.09375 
L 69.28125 38.09375 
L 69.28125 6.78125 
Q 63.578125 2.734375 56.6875 0.65625 
Q 49.8125 -1.421875 42 -1.421875 
Q 24.90625 -1.421875 15.25 8.5625 
Q 5.609375 18.5625 5.609375 36.375 
Q 5.609375 54.25 15.25 64.234375 
Q 24.90625 74.21875 42 74.21875 
Q 49.125 74.21875 55.546875 72.453125 
Q 61.96875 70.703125 67.390625 67.28125 
L 67.390625 56.78125 
Q 61.921875 61.421875 55.765625 63.765625 
Q 49.609375 66.109375 42.828125 66.109375 
Q 29.4375 66.109375 22.71875 58.640625 
Q 16.015625 51.171875 16.015625 36.375 
Q 16.015625 21.625 22.71875 14.15625 
Q 29.4375 6.6875 42.828125 6.6875 
Q 48.046875 6.6875 52.140625 7.59375 
Q 56.25 8.5 59.515625 10.40625 
z
" id="DejaVuSans-47"/>
      <path d="M 41.109375 46.296875 
Q 39.59375 47.171875 37.8125 47.578125 
Q 36.03125 48 33.890625 48 
Q 26.265625 48 22.1875 43.046875 
Q 18.109375 38.09375 18.109375 28.8125 
L 18.109375 0 
L 9.078125 0 
L 9.078125 54.6875 
L 18.109375 54.6875 
L 18.109375 46.1875 
Q 20.953125 51.171875 25.484375 53.578125 
Q 30.03125 56 36.53125 56 
Q 37.453125 56 38.578125 55.875 
Q 39.703125 55.765625 41.0625 55.515625 
z
" id="DejaVuSans-72"/>
      <path d="M 9.421875 54.6875 
L 18.40625 54.6875 
L 18.40625 0 
L 9.421875 0 
z
M 9.421875 75.984375 
L 18.40625 75.984375 
L 18.40625 64.59375 
L 9.421875 64.59375 
z
" id="DejaVuSans-69"/>
      <path d="M 45.40625 46.390625 
L 45.40625 75.984375 
L 54.390625 75.984375 
L 54.390625 0 
L 45.40625 0 
L 45.40625 8.203125 
Q 42.578125 3.328125 38.25 0.953125 
Q 33.9375 -1.421875 27.875 -1.421875 
Q 17.96875 -1.421875 11.734375 6.484375 
Q 5.515625 14.40625 5.515625 27.296875 
Q 5.515625 40.1875 11.734375 48.09375 
Q 17.96875 56 27.875 56 
Q 33.9375 56 38.25 53.625 
Q 42.578125 51.265625 45.40625 46.390625 
z
M 14.796875 27.296875 
Q 14.796875 17.390625 18.875 11.75 
Q 22.953125 6.109375 30.078125 6.109375 
Q 37.203125 6.109375 41.296875 11.75 
Q 45.40625 17.390625 45.40625 27.296875 
Q 45.40625 37.203125 41.296875 42.84375 
Q 37.203125 48.484375 30.078125 48.484375 
Q 22.953125 48.484375 18.875 42.84375 
Q 14.796875 37.203125 14.796875 27.296875 
z
" id="DejaVuSans-64"/>
      <path d="M 19.671875 64.796875 
L 19.671875 37.40625 
L 32.078125 37.40625 
Q 38.96875 37.40625 42.71875 40.96875 
Q 46.484375 44.53125 46.484375 51.125 
Q 46.484375 57.671875 42.71875 61.234375 
Q 38.96875 64.796875 32.078125 64.796875 
z
M 9.8125 72.90625 
L 32.078125 72.90625 
Q 44.34375 72.90625 50.609375 67.359375 
Q 56.890625 61.8125 56.890625 51.125 
Q 56.890625 40.328125 50.609375 34.8125 
Q 44.34375 29.296875 32.078125 29.296875 
L 19.671875 29.296875 
L 19.671875 0 
L 9.8125 0 
z
" id="DejaVuSans-50"/>
      <path d="M 54.890625 33.015625 
L 54.890625 0 
L 45.90625 0 
L 45.90625 32.71875 
Q 45.90625 40.484375 42.875 44.328125 
Q 39.84375 48.1875 33.796875 48.1875 
Q 26.515625 48.1875 22.3125 43.546875 
Q 18.109375 38.921875 18.109375 30.90625 
L 18.109375 0 
L 9.078125 0 
L 9.078125 54.6875 
L 18.109375 54.6875 
L 18.109375 46.1875 
Q 21.34375 51.125 25.703125 53.5625 
Q 30.078125 56 35.796875 56 
Q 45.21875 56 50.046875 50.171875 
Q 54.890625 44.34375 54.890625 33.015625 
z
" id="DejaVuSans-6e"/>
      <path d="M 44.28125 53.078125 
L 44.28125 44.578125 
Q 40.484375 46.53125 36.375 47.5 
Q 32.28125 48.484375 27.875 48.484375 
Q 21.1875 48.484375 17.84375 46.4375 
Q 14.5 44.390625 14.5 40.28125 
Q 14.5 37.15625 16.890625 35.375 
Q 19.28125 33.59375 26.515625 31.984375 
L 29.59375 31.296875 
Q 39.15625 29.25 43.1875 25.515625 
Q 47.21875 21.78125 47.21875 15.09375 
Q 47.21875 7.46875 41.1875 3.015625 
Q 35.15625 -1.421875 24.609375 -1.421875 
Q 20.21875 -1.421875 15.453125 -0.5625 
Q 10.6875 0.296875 5.421875 2 
L 5.421875 11.28125 
Q 10.40625 8.6875 15.234375 7.390625 
Q 20.0625 6.109375 24.8125 6.109375 
Q 31.15625 6.109375 34.5625 8.28125 
Q 37.984375 10.453125 37.984375 14.40625 
Q 37.984375 18.0625 35.515625 20.015625 
Q 33.0625 21.96875 24.703125 23.78125 
L 21.578125 24.515625 
Q 13.234375 26.265625 9.515625 29.90625 
Q 5.8125 33.546875 5.8125 39.890625 
Q 5.8125 47.609375 11.28125 51.796875 
Q 16.75 56 26.8125 56 
Q 31.78125 56 36.171875 55.265625 
Q 40.578125 54.546875 44.28125 53.078125 
z
" id="DejaVuSans-73"/>
      <path d="M 25.390625 72.90625 
L 33.6875 72.90625 
L 8.296875 -9.28125 
L 0 -9.28125 
z
" id="DejaVuSans-2f"/>
      <path d="M 64.40625 67.28125 
L 64.40625 56.890625 
Q 59.421875 61.53125 53.78125 63.8125 
Q 48.140625 66.109375 41.796875 66.109375 
Q 29.296875 66.109375 22.65625 58.46875 
Q 16.015625 50.828125 16.015625 36.375 
Q 16.015625 21.96875 22.65625 14.328125 
Q 29.296875 6.6875 41.796875 6.6875 
Q 48.140625 6.6875 53.78125 8.984375 
Q 59.421875 11.28125 64.40625 15.921875 
L 64.40625 5.609375 
Q 59.234375 2.09375 53.4375 0.328125 
Q 47.65625 -1.421875 41.21875 -1.421875 
Q 24.65625 -1.421875 15.125 8.703125 
Q 5.609375 18.84375 5.609375 36.375 
Q 5.609375 53.953125 15.125 64.078125 
Q 24.65625 74.21875 41.21875 74.21875 
Q 47.75 74.21875 53.53125 72.484375 
Q 59.328125 70.75 64.40625 67.28125 
z
" id="DejaVuSans-43"/>
      <path d="M 56.203125 29.59375 
L 56.203125 25.203125 
L 14.890625 25.203125 
Q 15.484375 15.921875 20.484375 11.0625 
Q 25.484375 6.203125 34.421875 6.203125 
Q 39.59375 6.203125 44.453125 7.46875 
Q 49.3125 8.734375 54.109375 11.28125 
L 54.109375 2.78125 
Q 49.265625 0.734375 44.1875 -0.34375 
Q 39.109375 -1.421875 33.890625 -1.421875 
Q 20.796875 -1.421875 13.15625 6.1875 
Q 5.515625 13.8125 5.515625 26.8125 
Q 5.515625 40.234375 12.765625 48.109375 
Q 20.015625 56 32.328125 56 
Q 43.359375 56 49.78125 48.890625 
Q 56.203125 41.796875 56.203125 29.59375 
z
M 47.21875 32.234375 
Q 47.125 39.59375 43.09375 43.984375 
Q 39.0625 48.390625 32.421875 48.390625 
Q 24.90625 48.390625 20.390625 44.140625 
Q 15.875 39.890625 15.1875 32.171875 
z
" id="DejaVuSans-65"/>
     </defs>
     <g transform="translate(240.455469 534.212188)scale(0.1 -0.1)">
      <use xlink:href="#DejaVuSans-54"/>
      <use x="60.818359" xlink:href="#DejaVuSans-6f"/>
      <use x="122" xlink:href="#DejaVuSans-74"/>
      <use x="161.208984" xlink:href="#DejaVuSans-61"/>
      <use x="222.488281" xlink:href="#DejaVuSans-6c"/>
      <use x="250.271484" xlink:href="#DejaVuSans-20"/>
      <use x="282.058594" xlink:href="#DejaVuSans-47"/>
      <use x="359.548828" xlink:href="#DejaVuSans-72"/>
      <use x="400.662109" xlink:href="#DejaVuSans-69"/>
      <use x="428.445312" xlink:href="#DejaVuSans-64"/>
      <use x="491.921875" xlink:href="#DejaVuSans-20"/>
      <use x="523.708984" xlink:href="#DejaVuSans-50"/>
      <use x="583.964844" xlink:href="#DejaVuSans-6f"/>
      <use x="645.146484" xlink:href="#DejaVuSans-69"/>
      <use x="672.929688" xlink:href="#DejaVuSans-6e"/>
      <use x="736.308594" xlink:href="#DejaVuSans-74"/>
      <use x="775.517578" xlink:href="#DejaVuSans-73"/>
      <use x="827.617188" xlink:href="#DejaVuSans-2f"/>
      <use x="861.308594" xlink:href="#DejaVuSans-43"/>
      <use x="931.132812" xlink:href="#DejaVuSans-6f"/>
      <use x="992.314453" xlink:href="#DejaVuSans-72"/>
      <use x="1033.396484" xlink:href="#DejaVuSans-65"/>
     </g>
    </g>
   </g>
   <g id="matplotlib.axis_2">
    <g id="ytick_1">
     <g id="line2d_22">
      <defs>
       <path d="M 0 0 
L -3.5 0 
" id="m0938f873ba" style="stroke:#000000;stroke-width:0.8;"/>
      </defs>
      <g>
       <use style="stroke:#000000;stroke-width:0.8;" x="72" xlink:href="#m0938f873ba" y="481.901948"/>
      </g>
     </g>
     <g id="text_5">
      <!-- $\mathdefault{10^{-1}}$ -->
      <defs>
       <path d="M 10.59375 35.5 
L 73.1875 35.5 
L 73.1875 27.203125 
L 10.59375 27.203125 
z
" id="DejaVuSans-2212"/>
      </defs>
      <g transform="translate(36.8 486.461011)scale(0.12 -0.12)">
       <use transform="translate(0 0.684375)" xlink:href="#DejaVuSans-31"/>
       <use transform="translate(63.623047 0.684375)" xlink:href="#DejaVuSans-30"/>
       <use transform="translate(128.203125 38.965625)scale(0.7)" xlink:href="#DejaVuSans-2212"/>
       <use transform="translate(186.855469 38.965625)scale(0.7)" xlink:href="#DejaVuSans-31"/>
      </g>
     </g>
    </g>
    <g id="ytick_2">
     <g id="line2d_23">
      <g>
       <use style="stroke:#000000;stroke-width:0.8;" x="72" xlink:href="#m0938f873ba" y="318.086857"/>
      </g>
     </g>
     <g id="text_6">
      <!-- $\mathdefault{10^{0}}$ -->
      <g transform="translate(43.88 322.64592)scale(0.12 -0.12)">
       <use transform="translate(0 0.765625)" xlink:href="#DejaVuSans-31"/>
       <use transform="translate(63.623047 0.765625)" xlink:href="#DejaVuSans-30"/>
       <use transform="translate(128.203125 39.046875)scale(0.7)" xlink:href="#DejaVuSans-30"/>
      </g>
     </g>
    </g>
    <g id="ytick_3">
     <g id="line2d_24">
      <g>
       <use style="stroke:#000000;stroke-width:0.8;" x="72" xlink:href="#m0938f873ba" y="154.271767"/>
      </g>
     </g>
     <g id="text_7">
      <!-- $\mathdefault{10^{1}}$ -->
      <g transform="translate(43.88 158.830829)scale(0.12 -0.12)">
       <use transform="translate(0 0.684375)" xlink:href="#DejaVuSans-31"/>
       <use transform="translate(63.623047 0.684375)" xlink:href="#DejaVuSans-30"/>
       <use transform="translate(128.203125 38.965625)scale(0.7)" xlink:href="#DejaVuSans-31"/>
      </g>
     </g>
    </g>
    <g id="ytick_4">
     <g id="line2d_25">
      <defs>
       <path d="M 0 0 
L -2 0 
" id="m2c5d515efc" style="stroke:#000000;stroke-width:0.6;"/>
      </defs>
      <g>
       <use style="stroke:#000000;stroke-width:0.6;" x="72" xlink:href="#m2c5d515efc" y="497.777271"/>
      </g>
     </g>
    </g>
    <g id="ytick_5">
     <g id="line2d_26">
      <g>
       <use style="stroke:#000000;stroke-width:0.6;" x="72" xlink:href="#m2c5d515efc" y="489.397716"/>
      </g>
     </g>
    </g>
    <g id="ytick_6">
     <g id="line2d_27">
      <g>
       <use style="stroke:#000000;stroke-width:0.6;" x="72" xlink:href="#m2c5d515efc" y="432.588692"/>
      </g>
     </g>
    </g>
    <g id="ytick_7">
     <g id="line2d_28">
      <g>
       <use style="stroke:#000000;stroke-width:0.6;" x="72" xlink:href="#m2c5d515efc" y="403.742286"/>
      </g>
     </g>
    </g>
    <g id="ytick_8">
     <g id="line2d_29">
      <g>
       <use style="stroke:#000000;stroke-width:0.6;" x="72" xlink:href="#m2c5d515efc" y="383.275436"/>
      </g>
     </g>
    </g>
    <g id="ytick_9">
     <g id="line2d_30">
      <g>
       <use style="stroke:#000000;stroke-width:0.6;" x="72" xlink:href="#m2c5d515efc" y="367.400113"/>
      </g>
     </g>
    </g>
    <g id="ytick_10">
     <g id="line2d_31">
      <g>
       <use style="stroke:#000000;stroke-width:0.6;" x="72" xlink:href="#m2c5d515efc" y="354.42903"/>
      </g>
     </g>
    </g>
    <g id="ytick_11">
     <g id="line2d_32">
      <g>
       <use style="stroke:#000000;stroke-width:0.6;" x="72" xlink:href="#m2c5d515efc" y="343.462136"/>
      </g>
     </g>
    </g>
    <g id="ytick_12">
     <g id="line2d_33">
      <g>
       <use style="stroke:#000000;stroke-width:0.6;" x="72" xlink:href="#m2c5d515efc" y="333.96218"/>
      </g>
     </g>
    </g>
    <g id="ytick_13">
     <g id="line2d_34">
      <g>
       <use style="stroke:#000000;stroke-width:0.6;" x="72" xlink:href="#m2c5d515efc" y="325.582625"/>
      </g>
     </g>
    </g>
    <g id="ytick_14">
     <g id="line2d_35">
      <g>
       <use style="stroke:#000000;stroke-width:0.6;" x="72" xlink:href="#m2c5d515efc" y="268.773601"/>
      </g>
     </g>
    </g>
    <g id="ytick_15">
     <g id="line2d_36">
      <g>
       <use style="stroke:#000000;stroke-width:0.6;" x="72" xlink:href="#m2c5d515efc" y="239.927196"/>
      </g>
     </g>
    </g>
    <g id="ytick_16">
     <g id="line2d_37">
      <g>
       <use style="stroke:#000000;stroke-width:0.6;" x="72" xlink:href="#m2c5d515efc" y="219.460345"/>
      </g>
     </g>
    </g>
    <g id="ytick_17">
     <g id="line2d_38">
      <g>
       <use style="stroke:#000000;stroke-width:0.6;" x="72" xlink:href="#m2c5d515efc" y="203.585023"/>
      </g>
     </g>
    </g>
    <g id="ytick_18">
     <g id="line2d_39">
      <g>
       <use style="stroke:#000000;stroke-width:0.6;" x="72" xlink:href="#m2c5d515efc" y="190.61394"/>
      </g>
     </g>
    </g>
    <g id="ytick_19">
     <g id="line2d_40">
      <g>
       <use style="stroke:#000000;stroke-width:0.6;" x="72" xlink:href="#m2c5d515efc" y="179.647045"/>
      </g>
     </g>
    </g>
    <g id="ytick_20">
     <g id="line2d_41">
      <g>
       <use style="stroke:#000000;stroke-width:0.6;" x="72" xlink:href="#m2c5d515efc" y="170.147089"/>
      </g>
     </g>
    </g>
    <g id="ytick_21">
     <g id="line2d_42">
      <g>
       <use style="stroke:#000000;stroke-width:0.6;" x="72" xlink:href="#m2c5d515efc" y="161.767534"/>
      </g>
     </g>
    </g>
    <g id="ytick_22">
     <g id="line2d_43">
      <g>
       <use style="stroke:#000000;stroke-width:0.6;" x="72" xlink:href="#m2c5d515efc" y="104.958511"/>
      </g>
     </g>
    </g>
    <g id="ytick_23">
     <g id="line2d_44">
      <g>
       <use style="stroke:#000000;stroke-width:0.6;" x="72" xlink:href="#m2c5d515efc" y="76.112105"/>
      </g>
     </g>
    </g>
    <g id="text_8">
     <!-- Time Steps/Second -->
     <defs>
      <path d="M 52 44.1875 
Q 55.375 50.25 60.0625 53.125 
Q 64.75 56 71.09375 56 
Q 79.640625 56 84.28125 50.015625 
Q 88.921875 44.046875 88.921875 33.015625 
L 88.921875 0 
L 79.890625 0 
L 79.890625 32.71875 
Q 79.890625 40.578125 77.09375 44.375 
Q 74.3125 48.1875 68.609375 48.1875 
Q 61.625 48.1875 57.5625 43.546875 
Q 53.515625 38.921875 53.515625 30.90625 
L 53.515625 0 
L 44.484375 0 
L 44.484375 32.71875 
Q 44.484375 40.625 41.703125 44.40625 
Q 38.921875 48.1875 33.109375 48.1875 
Q 26.21875 48.1875 22.15625 43.53125 
Q 18.109375 38.875 18.109375 30.90625 
L 18.109375 0 
L 9.078125 0 
L 9.078125 54.6875 
L 18.109375 54.6875 
L 18.109375 46.1875 
Q 21.1875 51.21875 25.484375 53.609375 
Q 29.78125 56 35.6875 56 
Q 41.65625 56 45.828125 52.96875 
Q 50 49.953125 52 44.1875 
z
" id="DejaVuSans-6d"/>
      <path d="M 53.515625 70.515625 
L 53.515625 60.890625 
Q 47.90625 63.578125 42.921875 64.890625 
Q 37.9375 66.21875 33.296875 66.21875 
Q 25.25 66.21875 20.875 63.09375 
Q 16.5 59.96875 16.5 54.203125 
Q 16.5 49.359375 19.40625 46.890625 
Q 22.3125 44.4375 30.421875 42.921875 
L 36.375 41.703125 
Q 47.40625 39.59375 52.65625 34.296875 
Q 57.90625 29 57.90625 20.125 
Q 57.90625 9.515625 50.796875 4.046875 
Q 43.703125 -1.421875 29.984375 -1.421875 
Q 24.8125 -1.421875 18.96875 -0.25 
Q 13.140625 0.921875 6.890625 3.21875 
L 6.890625 13.375 
Q 12.890625 10.015625 18.65625 8.296875 
Q 24.421875 6.59375 29.984375 6.59375 
Q 38.421875 6.59375 43.015625 9.90625 
Q 47.609375 13.234375 47.609375 19.390625 
Q 47.609375 24.75 44.3125 27.78125 
Q 41.015625 30.8125 33.5 32.328125 
L 27.484375 33.5 
Q 16.453125 35.6875 11.515625 40.375 
Q 6.59375 45.0625 6.59375 53.421875 
Q 6.59375 63.09375 13.40625 68.65625 
Q 20.21875 74.21875 32.171875 74.21875 
Q 37.3125 74.21875 42.625 73.28125 
Q 47.953125 72.359375 53.515625 70.515625 
z
" id="DejaVuSans-53"/>
      <path d="M 18.109375 8.203125 
L 18.109375 -20.796875 
L 9.078125 -20.796875 
L 9.078125 54.6875 
L 18.109375 54.6875 
L 18.109375 46.390625 
Q 20.953125 51.265625 25.265625 53.625 
Q 29.59375 56 35.59375 56 
Q 45.5625 56 51.78125 48.09375 
Q 58.015625 40.1875 58.015625 27.296875 
Q 58.015625 14.40625 51.78125 6.484375 
Q 45.5625 -1.421875 35.59375 -1.421875 
Q 29.59375 -1.421875 25.265625 0.953125 
Q 20.953125 3.328125 18.109375 8.203125 
z
M 48.6875 27.296875 
Q 48.6875 37.203125 44.609375 42.84375 
Q 40.53125 48.484375 33.40625 48.484375 
Q 26.265625 48.484375 22.1875 42.84375 
Q 18.109375 37.203125 18.109375 27.296875 
Q 18.109375 17.390625 22.1875 11.75 
Q 26.265625 6.109375 33.40625 6.109375 
Q 40.53125 6.109375 44.609375 11.75 
Q 48.6875 17.390625 48.6875 27.296875 
z
" id="DejaVuSans-70"/>
      <path d="M 48.78125 52.59375 
L 48.78125 44.1875 
Q 44.96875 46.296875 41.140625 47.34375 
Q 37.3125 48.390625 33.40625 48.390625 
Q 24.65625 48.390625 19.8125 42.84375 
Q 14.984375 37.3125 14.984375 27.296875 
Q 14.984375 17.28125 19.8125 11.734375 
Q 24.65625 6.203125 33.40625 6.203125 
Q 37.3125 6.203125 41.140625 7.25 
Q 44.96875 8.296875 48.78125 10.40625 
L 48.78125 2.09375 
Q 45.015625 0.34375 40.984375 -0.53125 
Q 36.96875 -1.421875 32.421875 -1.421875 
Q 20.0625 -1.421875 12.78125 6.34375 
Q 5.515625 14.109375 5.515625 27.296875 
Q 5.515625 40.671875 12.859375 48.328125 
Q 20.21875 56 33.015625 56 
Q 37.15625 56 41.109375 55.140625 
Q 45.0625 54.296875 48.78125 52.59375 
z
" id="DejaVuSans-63"/>
     </defs>
     <g transform="translate(30.720312 334.613125)rotate(-90)scale(0.1 -0.1)">
      <use xlink:href="#DejaVuSans-54"/>
      <use x="61.037109" xlink:href="#DejaVuSans-69"/>
      <use x="88.820312" xlink:href="#DejaVuSans-6d"/>
      <use x="186.232422" xlink:href="#DejaVuSans-65"/>
      <use x="247.755859" xlink:href="#DejaVuSans-20"/>
      <use x="279.542969" xlink:href="#DejaVuSans-53"/>
      <use x="343.019531" xlink:href="#DejaVuSans-74"/>
      <use x="382.228516" xlink:href="#DejaVuSans-65"/>
      <use x="443.751953" xlink:href="#DejaVuSans-70"/>
      <use x="507.228516" xlink:href="#DejaVuSans-73"/>
      <use x="559.328125" xlink:href="#DejaVuSans-2f"/>
      <use x="593.019531" xlink:href="#DejaVuSans-53"/>
      <use x="656.496094" xlink:href="#DejaVuSans-65"/>
      <use x="718.019531" xlink:href="#DejaVuSans-63"/>
      <use x="773" xlink:href="#DejaVuSans-6f"/>
      <use x="834.181641" xlink:href="#DejaVuSans-6e"/>
      <use x="897.560547" xlink:href="#DejaVuSans-64"/>
     </g>
    </g>
   </g>
   <g id="line2d_45">
    <path clip-path="url(#p3ce3f11ad5)" d="M 498.109091 449.624896 
L 389.276183 356.896691 
L 334.859729 309.319759 
L 280.443275 260.452538 
L 226.026821 212.409022 
L 171.610367 163.693421 
" style="fill:none;stroke:#1f77b4;stroke-dasharray:5.55,2.4;stroke-dashoffset:0;stroke-width:1.5;"/>
    <defs>
     <path d="M -3 3 
L 3 -3 
M -3 -3 
L 3 3 
" id="m0d0c7550c6" style="stroke:#1f77b4;"/>
    </defs>
    <g clip-path="url(#p3ce3f11ad5)">
     <use style="fill:#1f77b4;stroke:#1f77b4;" x="498.109091" xlink:href="#m0d0c7550c6" y="449.624896"/>
     <use style="fill:#1f77b4;stroke:#1f77b4;" x="389.276183" xlink:href="#m0d0c7550c6" y="356.896691"/>
     <use style="fill:#1f77b4;stroke:#1f77b4;" x="334.859729" xlink:href="#m0d0c7550c6" y="309.319759"/>
     <use style="fill:#1f77b4;stroke:#1f77b4;" x="280.443275" xlink:href="#m0d0c7550c6" y="260.452538"/>
     <use style="fill:#1f77b4;stroke:#1f77b4;" x="226.026821" xlink:href="#m0d0c7550c6" y="212.409022"/>
     <use style="fill:#1f77b4;stroke:#1f77b4;" x="171.610367" xlink:href="#m0d0c7550c6" y="163.693421"/>
    </g>
   </g>
   <g id="line2d_46">
    <path clip-path="url(#p3ce3f11ad5)" d="M 418.789633 484.232727 
L 309.956725 394.696605 
L 255.540271 350.406648 
L 201.123817 304.020303 
L 146.707363 257.528703 
L 92.290909 214.383004 
" style="fill:none;stroke:#ff7f0e;stroke-dasharray:5.55,2.4;stroke-dashoffset:0;stroke-width:1.5;"/>
    <defs>
     <path d="M -3 3 
L 3 -3 
M -3 -3 
L 3 3 
" id="mc8ece9b9d0" style="stroke:#ff7f0e;"/>
    </defs>
    <g clip-path="url(#p3ce3f11ad5)">
     <use style="fill:#ff7f0e;stroke:#ff7f0e;" x="418.789633" xlink:href="#mc8ece9b9d0" y="484.232727"/>
     <use style="fill:#ff7f0e;stroke:#ff7f0e;" x="309.956725" xlink:href="#mc8ece9b9d0" y="394.696605"/>
     <use style="fill:#ff7f0e;stroke:#ff7f0e;" x="255.540271" xlink:href="#mc8ece9b9d0" y="350.406648"/>
     <use style="fill:#ff7f0e;stroke:#ff7f0e;" x="201.123817" xlink:href="#mc8ece9b9d0" y="304.020303"/>
     <use style="fill:#ff7f0e;stroke:#ff7f0e;" x="146.707363" xlink:href="#mc8ece9b9d0" y="257.528703"/>
     <use style="fill:#ff7f0e;stroke:#ff7f0e;" x="92.290909" xlink:href="#mc8ece9b9d0" y="214.383004"/>
    </g>
   </g>
   <g id="line2d_47">
    <path clip-path="url(#p3ce3f11ad5)" d="M 418.789633 370.031206 
L 309.956725 274.552606 
L 255.540271 225.390055 
L 201.123817 180.154621 
L 146.707363 134.003841 
L 92.290909 96.731751 
" style="fill:none;stroke:#2ca02c;stroke-dasharray:5.55,2.4;stroke-dashoffset:0;stroke-width:1.5;"/>
    <defs>
     <path d="M -3 3 
L 3 -3 
M -3 -3 
L 3 3 
" id="mba713c5717" style="stroke:#2ca02c;"/>
    </defs>
    <g clip-path="url(#p3ce3f11ad5)">
     <use style="fill:#2ca02c;stroke:#2ca02c;" x="418.789633" xlink:href="#mba713c5717" y="370.031206"/>
     <use style="fill:#2ca02c;stroke:#2ca02c;" x="309.956725" xlink:href="#mba713c5717" y="274.552606"/>
     <use style="fill:#2ca02c;stroke:#2ca02c;" x="255.540271" xlink:href="#mba713c5717" y="225.390055"/>
     <use style="fill:#2ca02c;stroke:#2ca02c;" x="201.123817" xlink:href="#mba713c5717" y="180.154621"/>
     <use style="fill:#2ca02c;stroke:#2ca02c;" x="146.707363" xlink:href="#mba713c5717" y="134.003841"/>
     <use style="fill:#2ca02c;stroke:#2ca02c;" x="92.290909" xlink:href="#mba713c5717" y="96.731751"/>
    </g>
   </g>
   <g id="line2d_48">
    <path clip-path="url(#p3ce3f11ad5)" d="M 418.789633 343.804368 
L 309.956725 246.539585 
L 255.540271 185.400464 
L 201.123817 148.837552 
L 146.707363 104.185976 
" style="fill:none;stroke:#d62728;stroke-dasharray:5.55,2.4;stroke-dashoffset:0;stroke-width:1.5;"/>
    <defs>
     <path d="M -3 3 
L 3 -3 
M -3 -3 
L 3 3 
" id="m5172e841f9" style="stroke:#d62728;"/>
    </defs>
    <g clip-path="url(#p3ce3f11ad5)">
     <use style="fill:#d62728;stroke:#d62728;" x="418.789633" xlink:href="#m5172e841f9" y="343.804368"/>
     <use style="fill:#d62728;stroke:#d62728;" x="309.956725" xlink:href="#m5172e841f9" y="246.539585"/>
     <use style="fill:#d62728;stroke:#d62728;" x="255.540271" xlink:href="#m5172e841f9" y="185.400464"/>
     <use style="fill:#d62728;stroke:#d62728;" x="201.123817" xlink:href="#m5172e841f9" y="148.837552"/>
     <use style="fill:#d62728;stroke:#d62728;" x="146.707363" xlink:href="#m5172e841f9" y="104.185976"/>
    </g>
   </g>
   <g id="line2d_49">
    <path clip-path="url(#p3ce3f11ad5)" d="M 309.956725 274.839327 
L 255.540271 222.278021 
L 201.123817 170.798622 
L 146.707363 125.67393 
L 92.290909 88.887273 
" style="fill:none;stroke:#9467bd;stroke-dasharray:5.55,2.4;stroke-dashoffset:0;stroke-width:1.5;"/>
    <defs>
     <path d="M -3 3 
L 3 -3 
M -3 -3 
L 3 3 
" id="me665eb017b" style="stroke:#9467bd;"/>
    </defs>
    <g clip-path="url(#p3ce3f11ad5)">
     <use style="fill:#9467bd;stroke:#9467bd;" x="309.956725" xlink:href="#me665eb017b" y="274.839327"/>
     <use style="fill:#9467bd;stroke:#9467bd;" x="255.540271" xlink:href="#me665eb017b" y="222.278021"/>
     <use style="fill:#9467bd;stroke:#9467bd;" x="201.123817" xlink:href="#me665eb017b" y="170.798622"/>
     <use style="fill:#9467bd;stroke:#9467bd;" x="146.707363" xlink:href="#me665eb017b" y="125.67393"/>
     <use style="fill:#9467bd;stroke:#9467bd;" x="92.290909" xlink:href="#me665eb017b" y="88.887273"/>
    </g>
   </g>
   <g id="line2d_50">
    <path clip-path="url(#p3ce3f11ad5)" d="M 418.789633 381.081744 
L 255.540271 239.291898 
L 201.123817 192.198328 
L 146.707363 144.454003 
L 92.290909 104.458752 
" style="fill:none;stroke:#8c564b;stroke-dasharray:5.55,2.4;stroke-dashoffset:0;stroke-width:1.5;"/>
    <defs>
     <path d="M -3 3 
L 3 -3 
M -3 -3 
L 3 3 
" id="m134a9bfc55" style="stroke:#8c564b;"/>
    </defs>
    <g clip-path="url(#p3ce3f11ad5)">
     <use style="fill:#8c564b;stroke:#8c564b;" x="418.789633" xlink:href="#m134a9bfc55" y="381.081744"/>
     <use style="fill:#8c564b;stroke:#8c564b;" x="255.540271" xlink:href="#m134a9bfc55" y="239.291898"/>
     <use style="fill:#8c564b;stroke:#8c564b;" x="201.123817" xlink:href="#m134a9bfc55" y="192.198328"/>
     <use style="fill:#8c564b;stroke:#8c564b;" x="146.707363" xlink:href="#m134a9bfc55" y="144.454003"/>
     <use style="fill:#8c564b;stroke:#8c564b;" x="92.290909" xlink:href="#m134a9bfc55" y="104.458752"/>
    </g>
   </g>
   <g id="line2d_51">
    <path clip-path="url(#p3ce3f11ad5)" d="M 498.109091 449.450092 
L 389.276183 358.442035 
L 334.859729 310.919176 
L 280.443275 262.196746 
L 226.026821 214.48379 
L 171.610367 166.113414 
" style="fill:none;stroke:#e377c2;stroke-dasharray:5.55,2.4;stroke-dashoffset:0;stroke-width:1.5;"/>
    <defs>
     <path d="M -3 3 
L 3 -3 
M -3 -3 
L 3 3 
" id="mf88dd1a80b" style="stroke:#e377c2;"/>
    </defs>
    <g clip-path="url(#p3ce3f11ad5)">
     <use style="fill:#e377c2;stroke:#e377c2;" x="498.109091" xlink:href="#mf88dd1a80b" y="449.450092"/>
     <use style="fill:#e377c2;stroke:#e377c2;" x="389.276183" xlink:href="#mf88dd1a80b" y="358.442035"/>
     <use style="fill:#e377c2;stroke:#e377c2;" x="334.859729" xlink:href="#mf88dd1a80b" y="310.919176"/>
     <use style="fill:#e377c2;stroke:#e377c2;" x="280.443275" xlink:href="#mf88dd1a80b" y="262.196746"/>
     <use style="fill:#e377c2;stroke:#e377c2;" x="226.026821" xlink:href="#mf88dd1a80b" y="214.48379"/>
     <use style="fill:#e377c2;stroke:#e377c2;" x="171.610367" xlink:href="#mf88dd1a80b" y="166.113414"/>
    </g>
   </g>
   <g id="line2d_52">
    <path clip-path="url(#p3ce3f11ad5)" d="M 498.109091 443.440688 
L 389.276183 357.961518 
L 334.859729 310.771882 
L 280.443275 264.180556 
L 226.026821 214.58748 
L 171.610367 170.323308 
" style="fill:none;stroke:#7f7f7f;stroke-dasharray:5.55,2.4;stroke-dashoffset:0;stroke-width:1.5;"/>
    <defs>
     <path d="M -3 3 
L 3 -3 
M -3 -3 
L 3 3 
" id="mf3c5a906f2" style="stroke:#7f7f7f;"/>
    </defs>
    <g clip-path="url(#p3ce3f11ad5)">
     <use style="fill:#7f7f7f;stroke:#7f7f7f;" x="498.109091" xlink:href="#mf3c5a906f2" y="443.440688"/>
     <use style="fill:#7f7f7f;stroke:#7f7f7f;" x="389.276183" xlink:href="#mf3c5a906f2" y="357.961518"/>
     <use style="fill:#7f7f7f;stroke:#7f7f7f;" x="334.859729" xlink:href="#mf3c5a906f2" y="310.771882"/>
     <use style="fill:#7f7f7f;stroke:#7f7f7f;" x="280.443275" xlink:href="#mf3c5a906f2" y="264.180556"/>
     <use style="fill:#7f7f7f;stroke:#7f7f7f;" x="226.026821" xlink:href="#mf3c5a906f2" y="214.58748"/>
     <use style="fill:#7f7f7f;stroke:#7f7f7f;" x="171.610367" xlink:href="#mf3c5a906f2" y="170.323308"/>
    </g>
   </g>
   <g id="line2d_53">
    <path clip-path="url(#p3ce3f11ad5)" d="M 498.109091 424.9001 
L 389.276183 326.018538 
L 334.859729 276.664541 
L 280.443275 227.051382 
L 226.026821 178.031662 
L 171.610367 131.324301 
" style="fill:none;stroke:#bcbd22;stroke-dasharray:5.55,2.4;stroke-dashoffset:0;stroke-width:1.5;"/>
    <defs>
     <path d="M -3 3 
L 3 -3 
M -3 -3 
L 3 3 
" id="mf2353a50fe" style="stroke:#bcbd22;"/>
    </defs>
    <g clip-path="url(#p3ce3f11ad5)">
     <use style="fill:#bcbd22;stroke:#bcbd22;" x="498.109091" xlink:href="#mf2353a50fe" y="424.9001"/>
     <use style="fill:#bcbd22;stroke:#bcbd22;" x="389.276183" xlink:href="#mf2353a50fe" y="326.018538"/>
     <use style="fill:#bcbd22;stroke:#bcbd22;" x="334.859729" xlink:href="#mf2353a50fe" y="276.664541"/>
     <use style="fill:#bcbd22;stroke:#bcbd22;" x="280.443275" xlink:href="#mf2353a50fe" y="227.051382"/>
     <use style="fill:#bcbd22;stroke:#bcbd22;" x="226.026821" xlink:href="#mf2353a50fe" y="178.031662"/>
     <use style="fill:#bcbd22;stroke:#bcbd22;" x="171.610367" xlink:href="#mf2353a50fe" y="131.324301"/>
    </g>
   </g>
   <g id="patch_3">
    <path d="M 72 504 
L 72 69.12 
" style="fill:none;stroke:#000000;stroke-linecap:square;stroke-linejoin:miter;stroke-width:0.8;"/>
   </g>
   <g id="patch_4">
    <path d="M 518.4 504 
L 518.4 69.12 
" style="fill:none;stroke:#000000;stroke-linecap:square;stroke-linejoin:miter;stroke-width:0.8;"/>
   </g>
   <g id="patch_5">
    <path d="M 72 504 
L 518.4 504 
" style="fill:none;stroke:#000000;stroke-linecap:square;stroke-linejoin:miter;stroke-width:0.8;"/>
   </g>
   <g id="patch_6">
    <path d="M 72 69.12 
L 518.4 69.12 
" style="fill:none;stroke:#000000;stroke-linecap:square;stroke-linejoin:miter;stroke-width:0.8;"/>
   </g>
   <g id="text_9">
    <!-- Compiler + MPI Summaries -->
    <defs>
     <path d="M 46 62.703125 
L 46 35.5 
L 73.1875 35.5 
L 73.1875 27.203125 
L 46 27.203125 
L 46 0 
L 37.796875 0 
L 37.796875 27.203125 
L 10.59375 27.203125 
L 10.59375 35.5 
L 37.796875 35.5 
L 37.796875 62.703125 
z
" id="DejaVuSans-2b"/>
     <path d="M 9.8125 72.90625 
L 24.515625 72.90625 
L 43.109375 23.296875 
L 61.8125 72.90625 
L 76.515625 72.90625 
L 76.515625 0 
L 66.890625 0 
L 66.890625 64.015625 
L 48.09375 14.015625 
L 38.1875 14.015625 
L 19.390625 64.015625 
L 19.390625 0 
L 9.8125 0 
z
" id="DejaVuSans-4d"/>
     <path d="M 9.8125 72.90625 
L 19.671875 72.90625 
L 19.671875 0 
L 9.8125 0 
z
" id="DejaVuSans-49"/>
     <path d="M 8.5 21.578125 
L 8.5 54.6875 
L 17.484375 54.6875 
L 17.484375 21.921875 
Q 17.484375 14.15625 20.5 10.265625 
Q 23.53125 6.390625 29.59375 6.390625 
Q 36.859375 6.390625 41.078125 11.03125 
Q 45.3125 15.671875 45.3125 23.6875 
L 45.3125 54.6875 
L 54.296875 54.6875 
L 54.296875 0 
L 45.3125 0 
L 45.3125 8.40625 
Q 42.046875 3.421875 37.71875 1 
Q 33.40625 -1.421875 27.6875 -1.421875 
Q 18.265625 -1.421875 13.375 4.4375 
Q 8.5 10.296875 8.5 21.578125 
z
M 31.109375 56 
z
" id="DejaVuSans-75"/>
    </defs>
    <g transform="translate(212.952187 63.12)scale(0.12 -0.12)">
     <use xlink:href="#DejaVuSans-43"/>
     <use x="69.824219" xlink:href="#DejaVuSans-6f"/>
     <use x="131.005859" xlink:href="#DejaVuSans-6d"/>
     <use x="228.417969" xlink:href="#DejaVuSans-70"/>
     <use x="291.894531" xlink:href="#DejaVuSans-69"/>
     <use x="319.677734" xlink:href="#DejaVuSans-6c"/>
     <use x="347.460938" xlink:href="#DejaVuSans-65"/>
     <use x="408.984375" xlink:href="#DejaVuSans-72"/>
     <use x="450.097656" xlink:href="#DejaVuSans-20"/>
     <use x="481.884766" xlink:href="#DejaVuSans-2b"/>
     <use x="565.673828" xlink:href="#DejaVuSans-20"/>
     <use x="597.460938" xlink:href="#DejaVuSans-4d"/>
     <use x="683.740234" xlink:href="#DejaVuSans-50"/>
     <use x="744.042969" xlink:href="#DejaVuSans-49"/>
     <use x="773.535156" xlink:href="#DejaVuSans-20"/>
     <use x="805.322266" xlink:href="#DejaVuSans-53"/>
     <use x="868.798828" xlink:href="#DejaVuSans-75"/>
     <use x="932.177734" xlink:href="#DejaVuSans-6d"/>
     <use x="1029.589844" xlink:href="#DejaVuSans-6d"/>
     <use x="1127.001953" xlink:href="#DejaVuSans-61"/>
     <use x="1188.28125" xlink:href="#DejaVuSans-72"/>
     <use x="1229.394531" xlink:href="#DejaVuSans-69"/>
     <use x="1257.177734" xlink:href="#DejaVuSans-65"/>
     <use x="1318.701172" xlink:href="#DejaVuSans-73"/>
    </g>
   </g>
   <g id="legend_1">
    <g id="patch_7">
     <path d="M 268.83125 209.223125 
L 511.4 209.223125 
Q 513.4 209.223125 513.4 207.223125 
L 513.4 76.12 
Q 513.4 74.12 511.4 74.12 
L 268.83125 74.12 
Q 266.83125 74.12 266.83125 76.12 
L 266.83125 207.223125 
Q 266.83125 209.223125 268.83125 209.223125 
z
" style="fill:#ffffff;opacity:0.8;stroke:#cccccc;stroke-linejoin:miter;"/>
    </g>
    <g id="line2d_54">
     <path d="M 270.83125 82.218437 
L 290.83125 82.218437 
" style="fill:none;stroke:#1f77b4;stroke-dasharray:5.55,2.4;stroke-dashoffset:0;stroke-width:1.5;"/>
    </g>
    <g id="line2d_55">
     <g>
      <use style="fill:#1f77b4;stroke:#1f77b4;" x="280.83125" xlink:href="#m0d0c7550c6" y="82.218437"/>
     </g>
    </g>
    <g id="text_10">
     <!-- gnu-8.1.0-mpi-mvapich2-katrina-3km -->
     <defs>
      <path d="M 45.40625 27.984375 
Q 45.40625 37.75 41.375 43.109375 
Q 37.359375 48.484375 30.078125 48.484375 
Q 22.859375 48.484375 18.828125 43.109375 
Q 14.796875 37.75 14.796875 27.984375 
Q 14.796875 18.265625 18.828125 12.890625 
Q 22.859375 7.515625 30.078125 7.515625 
Q 37.359375 7.515625 41.375 12.890625 
Q 45.40625 18.265625 45.40625 27.984375 
z
M 54.390625 6.78125 
Q 54.390625 -7.171875 48.1875 -13.984375 
Q 42 -20.796875 29.203125 -20.796875 
Q 24.46875 -20.796875 20.265625 -20.09375 
Q 16.0625 -19.390625 12.109375 -17.921875 
L 12.109375 -9.1875 
Q 16.0625 -11.328125 19.921875 -12.34375 
Q 23.78125 -13.375 27.78125 -13.375 
Q 36.625 -13.375 41.015625 -8.765625 
Q 45.40625 -4.15625 45.40625 5.171875 
L 45.40625 9.625 
Q 42.625 4.78125 38.28125 2.390625 
Q 33.9375 0 27.875 0 
Q 17.828125 0 11.671875 7.65625 
Q 5.515625 15.328125 5.515625 27.984375 
Q 5.515625 40.671875 11.671875 48.328125 
Q 17.828125 56 27.875 56 
Q 33.9375 56 38.28125 53.609375 
Q 42.625 51.21875 45.40625 46.390625 
L 45.40625 54.6875 
L 54.390625 54.6875 
z
" id="DejaVuSans-67"/>
      <path d="M 4.890625 31.390625 
L 31.203125 31.390625 
L 31.203125 23.390625 
L 4.890625 23.390625 
z
" id="DejaVuSans-2d"/>
      <path d="M 31.78125 34.625 
Q 24.75 34.625 20.71875 30.859375 
Q 16.703125 27.09375 16.703125 20.515625 
Q 16.703125 13.921875 20.71875 10.15625 
Q 24.75 6.390625 31.78125 6.390625 
Q 38.8125 6.390625 42.859375 10.171875 
Q 46.921875 13.96875 46.921875 20.515625 
Q 46.921875 27.09375 42.890625 30.859375 
Q 38.875 34.625 31.78125 34.625 
z
M 21.921875 38.8125 
Q 15.578125 40.375 12.03125 44.71875 
Q 8.5 49.078125 8.5 55.328125 
Q 8.5 64.0625 14.71875 69.140625 
Q 20.953125 74.21875 31.78125 74.21875 
Q 42.671875 74.21875 48.875 69.140625 
Q 55.078125 64.0625 55.078125 55.328125 
Q 55.078125 49.078125 51.53125 44.71875 
Q 48 40.375 41.703125 38.8125 
Q 48.828125 37.15625 52.796875 32.3125 
Q 56.78125 27.484375 56.78125 20.515625 
Q 56.78125 9.90625 50.3125 4.234375 
Q 43.84375 -1.421875 31.78125 -1.421875 
Q 19.734375 -1.421875 13.25 4.234375 
Q 6.78125 9.90625 6.78125 20.515625 
Q 6.78125 27.484375 10.78125 32.3125 
Q 14.796875 37.15625 21.921875 38.8125 
z
M 18.3125 54.390625 
Q 18.3125 48.734375 21.84375 45.5625 
Q 25.390625 42.390625 31.78125 42.390625 
Q 38.140625 42.390625 41.71875 45.5625 
Q 45.3125 48.734375 45.3125 54.390625 
Q 45.3125 60.0625 41.71875 63.234375 
Q 38.140625 66.40625 31.78125 66.40625 
Q 25.390625 66.40625 21.84375 63.234375 
Q 18.3125 60.0625 18.3125 54.390625 
z
" id="DejaVuSans-38"/>
      <path d="M 10.6875 12.40625 
L 21 12.40625 
L 21 0 
L 10.6875 0 
z
" id="DejaVuSans-2e"/>
      <path d="M 2.984375 54.6875 
L 12.5 54.6875 
L 29.59375 8.796875 
L 46.6875 54.6875 
L 56.203125 54.6875 
L 35.6875 0 
L 23.484375 0 
z
" id="DejaVuSans-76"/>
      <path d="M 54.890625 33.015625 
L 54.890625 0 
L 45.90625 0 
L 45.90625 32.71875 
Q 45.90625 40.484375 42.875 44.328125 
Q 39.84375 48.1875 33.796875 48.1875 
Q 26.515625 48.1875 22.3125 43.546875 
Q 18.109375 38.921875 18.109375 30.90625 
L 18.109375 0 
L 9.078125 0 
L 9.078125 75.984375 
L 18.109375 75.984375 
L 18.109375 46.1875 
Q 21.34375 51.125 25.703125 53.5625 
Q 30.078125 56 35.796875 56 
Q 45.21875 56 50.046875 50.171875 
Q 54.890625 44.34375 54.890625 33.015625 
z
" id="DejaVuSans-68"/>
      <path d="M 9.078125 75.984375 
L 18.109375 75.984375 
L 18.109375 31.109375 
L 44.921875 54.6875 
L 56.390625 54.6875 
L 27.390625 29.109375 
L 57.625 0 
L 45.90625 0 
L 18.109375 26.703125 
L 18.109375 0 
L 9.078125 0 
z
" id="DejaVuSans-6b"/>
     </defs>
     <g transform="translate(298.83125 85.718437)scale(0.1 -0.1)">
      <use xlink:href="#DejaVuSans-67"/>
      <use x="63.476562" xlink:href="#DejaVuSans-6e"/>
      <use x="126.855469" xlink:href="#DejaVuSans-75"/>
      <use x="190.234375" xlink:href="#DejaVuSans-2d"/>
      <use x="226.318359" xlink:href="#DejaVuSans-38"/>
      <use x="289.941406" xlink:href="#DejaVuSans-2e"/>
      <use x="321.728516" xlink:href="#DejaVuSans-31"/>
      <use x="385.351562" xlink:href="#DejaVuSans-2e"/>
      <use x="417.138672" xlink:href="#DejaVuSans-30"/>
      <use x="480.761719" xlink:href="#DejaVuSans-2d"/>
      <use x="516.845703" xlink:href="#DejaVuSans-6d"/>
      <use x="614.257812" xlink:href="#DejaVuSans-70"/>
      <use x="677.734375" xlink:href="#DejaVuSans-69"/>
      <use x="705.517578" xlink:href="#DejaVuSans-2d"/>
      <use x="741.601562" xlink:href="#DejaVuSans-6d"/>
      <use x="839.013672" xlink:href="#DejaVuSans-76"/>
      <use x="898.193359" xlink:href="#DejaVuSans-61"/>
      <use x="959.472656" xlink:href="#DejaVuSans-70"/>
      <use x="1022.949219" xlink:href="#DejaVuSans-69"/>
      <use x="1050.732422" xlink:href="#DejaVuSans-63"/>
      <use x="1105.712891" xlink:href="#DejaVuSans-68"/>
      <use x="1169.091797" xlink:href="#DejaVuSans-32"/>
      <use x="1232.714844" xlink:href="#DejaVuSans-2d"/>
      <use x="1268.798828" xlink:href="#DejaVuSans-6b"/>
      <use x="1326.693359" xlink:href="#DejaVuSans-61"/>
      <use x="1387.972656" xlink:href="#DejaVuSans-74"/>
      <use x="1427.181641" xlink:href="#DejaVuSans-72"/>
      <use x="1468.294922" xlink:href="#DejaVuSans-69"/>
      <use x="1496.078125" xlink:href="#DejaVuSans-6e"/>
      <use x="1559.457031" xlink:href="#DejaVuSans-61"/>
      <use x="1620.736328" xlink:href="#DejaVuSans-2d"/>
      <use x="1656.820312" xlink:href="#DejaVuSans-33"/>
      <use x="1720.443359" xlink:href="#DejaVuSans-6b"/>
      <use x="1778.353516" xlink:href="#DejaVuSans-6d"/>
     </g>
    </g>
    <g id="line2d_56">
     <path d="M 270.83125 96.896563 
L 290.83125 96.896563 
" style="fill:none;stroke:#ff7f0e;stroke-dasharray:5.55,2.4;stroke-dashoffset:0;stroke-width:1.5;"/>
    </g>
    <g id="line2d_57">
     <g>
      <use style="fill:#ff7f0e;stroke:#ff7f0e;" x="280.83125" xlink:href="#mc8ece9b9d0" y="96.896563"/>
     </g>
    </g>
    <g id="text_11">
     <!-- gnu-6.3.0-mpi-mpt218-katrina-1km -->
     <defs>
      <path d="M 33.015625 40.375 
Q 26.375 40.375 22.484375 35.828125 
Q 18.609375 31.296875 18.609375 23.390625 
Q 18.609375 15.53125 22.484375 10.953125 
Q 26.375 6.390625 33.015625 6.390625 
Q 39.65625 6.390625 43.53125 10.953125 
Q 47.40625 15.53125 47.40625 23.390625 
Q 47.40625 31.296875 43.53125 35.828125 
Q 39.65625 40.375 33.015625 40.375 
z
M 52.59375 71.296875 
L 52.59375 62.3125 
Q 48.875 64.0625 45.09375 64.984375 
Q 41.3125 65.921875 37.59375 65.921875 
Q 27.828125 65.921875 22.671875 59.328125 
Q 17.53125 52.734375 16.796875 39.40625 
Q 19.671875 43.65625 24.015625 45.921875 
Q 28.375 48.1875 33.59375 48.1875 
Q 44.578125 48.1875 50.953125 41.515625 
Q 57.328125 34.859375 57.328125 23.390625 
Q 57.328125 12.15625 50.6875 5.359375 
Q 44.046875 -1.421875 33.015625 -1.421875 
Q 20.359375 -1.421875 13.671875 8.265625 
Q 6.984375 17.96875 6.984375 36.375 
Q 6.984375 53.65625 15.1875 63.9375 
Q 23.390625 74.21875 37.203125 74.21875 
Q 40.921875 74.21875 44.703125 73.484375 
Q 48.484375 72.75 52.59375 71.296875 
z
" id="DejaVuSans-36"/>
     </defs>
     <g transform="translate(298.83125 100.396563)scale(0.1 -0.1)">
      <use xlink:href="#DejaVuSans-67"/>
      <use x="63.476562" xlink:href="#DejaVuSans-6e"/>
      <use x="126.855469" xlink:href="#DejaVuSans-75"/>
      <use x="190.234375" xlink:href="#DejaVuSans-2d"/>
      <use x="226.318359" xlink:href="#DejaVuSans-36"/>
      <use x="289.941406" xlink:href="#DejaVuSans-2e"/>
      <use x="321.728516" xlink:href="#DejaVuSans-33"/>
      <use x="385.351562" xlink:href="#DejaVuSans-2e"/>
      <use x="417.138672" xlink:href="#DejaVuSans-30"/>
      <use x="480.761719" xlink:href="#DejaVuSans-2d"/>
      <use x="516.845703" xlink:href="#DejaVuSans-6d"/>
      <use x="614.257812" xlink:href="#DejaVuSans-70"/>
      <use x="677.734375" xlink:href="#DejaVuSans-69"/>
      <use x="705.517578" xlink:href="#DejaVuSans-2d"/>
      <use x="741.601562" xlink:href="#DejaVuSans-6d"/>
      <use x="839.013672" xlink:href="#DejaVuSans-70"/>
      <use x="902.490234" xlink:href="#DejaVuSans-74"/>
      <use x="941.699219" xlink:href="#DejaVuSans-32"/>
      <use x="1005.322266" xlink:href="#DejaVuSans-31"/>
      <use x="1068.945312" xlink:href="#DejaVuSans-38"/>
      <use x="1132.568359" xlink:href="#DejaVuSans-2d"/>
      <use x="1168.652344" xlink:href="#DejaVuSans-6b"/>
      <use x="1226.546875" xlink:href="#DejaVuSans-61"/>
      <use x="1287.826172" xlink:href="#DejaVuSans-74"/>
      <use x="1327.035156" xlink:href="#DejaVuSans-72"/>
      <use x="1368.148438" xlink:href="#DejaVuSans-69"/>
      <use x="1395.931641" xlink:href="#DejaVuSans-6e"/>
      <use x="1459.310547" xlink:href="#DejaVuSans-61"/>
      <use x="1520.589844" xlink:href="#DejaVuSans-2d"/>
      <use x="1556.673828" xlink:href="#DejaVuSans-31"/>
      <use x="1620.296875" xlink:href="#DejaVuSans-6b"/>
      <use x="1678.207031" xlink:href="#DejaVuSans-6d"/>
     </g>
    </g>
    <g id="line2d_58">
     <path d="M 270.83125 111.574687 
L 290.83125 111.574687 
" style="fill:none;stroke:#2ca02c;stroke-dasharray:5.55,2.4;stroke-dashoffset:0;stroke-width:1.5;"/>
    </g>
    <g id="line2d_59">
     <g>
      <use style="fill:#2ca02c;stroke:#2ca02c;" x="280.83125" xlink:href="#mba713c5717" y="111.574687"/>
     </g>
    </g>
    <g id="text_12">
     <!-- gnu-8.1.0-mpi-fma-mvapich2-katrina-1km -->
     <defs>
      <path d="M 37.109375 75.984375 
L 37.109375 68.5 
L 28.515625 68.5 
Q 23.6875 68.5 21.796875 66.546875 
Q 19.921875 64.59375 19.921875 59.515625 
L 19.921875 54.6875 
L 34.71875 54.6875 
L 34.71875 47.703125 
L 19.921875 47.703125 
L 19.921875 0 
L 10.890625 0 
L 10.890625 47.703125 
L 2.296875 47.703125 
L 2.296875 54.6875 
L 10.890625 54.6875 
L 10.890625 58.5 
Q 10.890625 67.625 15.140625 71.796875 
Q 19.390625 75.984375 28.609375 75.984375 
z
" id="DejaVuSans-66"/>
     </defs>
     <g transform="translate(298.83125 115.074687)scale(0.1 -0.1)">
      <use xlink:href="#DejaVuSans-67"/>
      <use x="63.476562" xlink:href="#DejaVuSans-6e"/>
      <use x="126.855469" xlink:href="#DejaVuSans-75"/>
      <use x="190.234375" xlink:href="#DejaVuSans-2d"/>
      <use x="226.318359" xlink:href="#DejaVuSans-38"/>
      <use x="289.941406" xlink:href="#DejaVuSans-2e"/>
      <use x="321.728516" xlink:href="#DejaVuSans-31"/>
      <use x="385.351562" xlink:href="#DejaVuSans-2e"/>
      <use x="417.138672" xlink:href="#DejaVuSans-30"/>
      <use x="480.761719" xlink:href="#DejaVuSans-2d"/>
      <use x="516.845703" xlink:href="#DejaVuSans-6d"/>
      <use x="614.257812" xlink:href="#DejaVuSans-70"/>
      <use x="677.734375" xlink:href="#DejaVuSans-69"/>
      <use x="705.517578" xlink:href="#DejaVuSans-2d"/>
      <use x="741.601562" xlink:href="#DejaVuSans-66"/>
      <use x="776.806641" xlink:href="#DejaVuSans-6d"/>
      <use x="874.21875" xlink:href="#DejaVuSans-61"/>
      <use x="935.498047" xlink:href="#DejaVuSans-2d"/>
      <use x="971.582031" xlink:href="#DejaVuSans-6d"/>
      <use x="1068.994141" xlink:href="#DejaVuSans-76"/>
      <use x="1128.173828" xlink:href="#DejaVuSans-61"/>
      <use x="1189.453125" xlink:href="#DejaVuSans-70"/>
      <use x="1252.929688" xlink:href="#DejaVuSans-69"/>
      <use x="1280.712891" xlink:href="#DejaVuSans-63"/>
      <use x="1335.693359" xlink:href="#DejaVuSans-68"/>
      <use x="1399.072266" xlink:href="#DejaVuSans-32"/>
      <use x="1462.695312" xlink:href="#DejaVuSans-2d"/>
      <use x="1498.779297" xlink:href="#DejaVuSans-6b"/>
      <use x="1556.673828" xlink:href="#DejaVuSans-61"/>
      <use x="1617.953125" xlink:href="#DejaVuSans-74"/>
      <use x="1657.162109" xlink:href="#DejaVuSans-72"/>
      <use x="1698.275391" xlink:href="#DejaVuSans-69"/>
      <use x="1726.058594" xlink:href="#DejaVuSans-6e"/>
      <use x="1789.4375" xlink:href="#DejaVuSans-61"/>
      <use x="1850.716797" xlink:href="#DejaVuSans-2d"/>
      <use x="1886.800781" xlink:href="#DejaVuSans-31"/>
      <use x="1950.423828" xlink:href="#DejaVuSans-6b"/>
      <use x="2008.333984" xlink:href="#DejaVuSans-6d"/>
     </g>
    </g>
    <g id="line2d_60">
     <path d="M 270.83125 126.252813 
L 290.83125 126.252813 
" style="fill:none;stroke:#d62728;stroke-dasharray:5.55,2.4;stroke-dashoffset:0;stroke-width:1.5;"/>
    </g>
    <g id="line2d_61">
     <g>
      <use style="fill:#d62728;stroke:#d62728;" x="280.83125" xlink:href="#m5172e841f9" y="126.252813"/>
     </g>
    </g>
    <g id="text_13">
     <!-- intel-17.0.1-mpi-mpt218-katrina-1km -->
     <defs>
      <path d="M 8.203125 72.90625 
L 55.078125 72.90625 
L 55.078125 68.703125 
L 28.609375 0 
L 18.3125 0 
L 43.21875 64.59375 
L 8.203125 64.59375 
z
" id="DejaVuSans-37"/>
     </defs>
     <g transform="translate(298.83125 129.752813)scale(0.1 -0.1)">
      <use xlink:href="#DejaVuSans-69"/>
      <use x="27.783203" xlink:href="#DejaVuSans-6e"/>
      <use x="91.162109" xlink:href="#DejaVuSans-74"/>
      <use x="130.371094" xlink:href="#DejaVuSans-65"/>
      <use x="191.894531" xlink:href="#DejaVuSans-6c"/>
      <use x="219.677734" xlink:href="#DejaVuSans-2d"/>
      <use x="255.761719" xlink:href="#DejaVuSans-31"/>
      <use x="319.384766" xlink:href="#DejaVuSans-37"/>
      <use x="383.007812" xlink:href="#DejaVuSans-2e"/>
      <use x="414.794922" xlink:href="#DejaVuSans-30"/>
      <use x="478.417969" xlink:href="#DejaVuSans-2e"/>
      <use x="510.205078" xlink:href="#DejaVuSans-31"/>
      <use x="573.828125" xlink:href="#DejaVuSans-2d"/>
      <use x="609.912109" xlink:href="#DejaVuSans-6d"/>
      <use x="707.324219" xlink:href="#DejaVuSans-70"/>
      <use x="770.800781" xlink:href="#DejaVuSans-69"/>
      <use x="798.583984" xlink:href="#DejaVuSans-2d"/>
      <use x="834.667969" xlink:href="#DejaVuSans-6d"/>
      <use x="932.080078" xlink:href="#DejaVuSans-70"/>
      <use x="995.556641" xlink:href="#DejaVuSans-74"/>
      <use x="1034.765625" xlink:href="#DejaVuSans-32"/>
      <use x="1098.388672" xlink:href="#DejaVuSans-31"/>
      <use x="1162.011719" xlink:href="#DejaVuSans-38"/>
      <use x="1225.634766" xlink:href="#DejaVuSans-2d"/>
      <use x="1261.71875" xlink:href="#DejaVuSans-6b"/>
      <use x="1319.613281" xlink:href="#DejaVuSans-61"/>
      <use x="1380.892578" xlink:href="#DejaVuSans-74"/>
      <use x="1420.101562" xlink:href="#DejaVuSans-72"/>
      <use x="1461.214844" xlink:href="#DejaVuSans-69"/>
      <use x="1488.998047" xlink:href="#DejaVuSans-6e"/>
      <use x="1552.376953" xlink:href="#DejaVuSans-61"/>
      <use x="1613.65625" xlink:href="#DejaVuSans-2d"/>
      <use x="1649.740234" xlink:href="#DejaVuSans-31"/>
      <use x="1713.363281" xlink:href="#DejaVuSans-6b"/>
      <use x="1771.273438" xlink:href="#DejaVuSans-6d"/>
     </g>
    </g>
    <g id="line2d_62">
     <path d="M 270.83125 140.930938 
L 290.83125 140.930938 
" style="fill:none;stroke:#9467bd;stroke-dasharray:5.55,2.4;stroke-dashoffset:0;stroke-width:1.5;"/>
    </g>
    <g id="line2d_63">
     <g>
      <use style="fill:#9467bd;stroke:#9467bd;" x="280.83125" xlink:href="#me665eb017b" y="140.930938"/>
     </g>
    </g>
    <g id="text_14">
     <!-- gnu-8.1.0-mpi-mpt218-katrina-1km -->
     <g transform="translate(298.83125 144.430938)scale(0.1 -0.1)">
      <use xlink:href="#DejaVuSans-67"/>
      <use x="63.476562" xlink:href="#DejaVuSans-6e"/>
      <use x="126.855469" xlink:href="#DejaVuSans-75"/>
      <use x="190.234375" xlink:href="#DejaVuSans-2d"/>
      <use x="226.318359" xlink:href="#DejaVuSans-38"/>
      <use x="289.941406" xlink:href="#DejaVuSans-2e"/>
      <use x="321.728516" xlink:href="#DejaVuSans-31"/>
      <use x="385.351562" xlink:href="#DejaVuSans-2e"/>
      <use x="417.138672" xlink:href="#DejaVuSans-30"/>
      <use x="480.761719" xlink:href="#DejaVuSans-2d"/>
      <use x="516.845703" xlink:href="#DejaVuSans-6d"/>
      <use x="614.257812" xlink:href="#DejaVuSans-70"/>
      <use x="677.734375" xlink:href="#DejaVuSans-69"/>
      <use x="705.517578" xlink:href="#DejaVuSans-2d"/>
      <use x="741.601562" xlink:href="#DejaVuSans-6d"/>
      <use x="839.013672" xlink:href="#DejaVuSans-70"/>
      <use x="902.490234" xlink:href="#DejaVuSans-74"/>
      <use x="941.699219" xlink:href="#DejaVuSans-32"/>
      <use x="1005.322266" xlink:href="#DejaVuSans-31"/>
      <use x="1068.945312" xlink:href="#DejaVuSans-38"/>
      <use x="1132.568359" xlink:href="#DejaVuSans-2d"/>
      <use x="1168.652344" xlink:href="#DejaVuSans-6b"/>
      <use x="1226.546875" xlink:href="#DejaVuSans-61"/>
      <use x="1287.826172" xlink:href="#DejaVuSans-74"/>
      <use x="1327.035156" xlink:href="#DejaVuSans-72"/>
      <use x="1368.148438" xlink:href="#DejaVuSans-69"/>
      <use x="1395.931641" xlink:href="#DejaVuSans-6e"/>
      <use x="1459.310547" xlink:href="#DejaVuSans-61"/>
      <use x="1520.589844" xlink:href="#DejaVuSans-2d"/>
      <use x="1556.673828" xlink:href="#DejaVuSans-31"/>
      <use x="1620.296875" xlink:href="#DejaVuSans-6b"/>
      <use x="1678.207031" xlink:href="#DejaVuSans-6d"/>
     </g>
    </g>
    <g id="line2d_64">
     <path d="M 270.83125 155.609062 
L 290.83125 155.609062 
" style="fill:none;stroke:#8c564b;stroke-dasharray:5.55,2.4;stroke-dashoffset:0;stroke-width:1.5;"/>
    </g>
    <g id="line2d_65">
     <g>
      <use style="fill:#8c564b;stroke:#8c564b;" x="280.83125" xlink:href="#m134a9bfc55" y="155.609062"/>
     </g>
    </g>
    <g id="text_15">
     <!-- gnu-6.3.0-mpi-mvapich2-katrina-1km -->
     <g transform="translate(298.83125 159.109062)scale(0.1 -0.1)">
      <use xlink:href="#DejaVuSans-67"/>
      <use x="63.476562" xlink:href="#DejaVuSans-6e"/>
      <use x="126.855469" xlink:href="#DejaVuSans-75"/>
      <use x="190.234375" xlink:href="#DejaVuSans-2d"/>
      <use x="226.318359" xlink:href="#DejaVuSans-36"/>
      <use x="289.941406" xlink:href="#DejaVuSans-2e"/>
      <use x="321.728516" xlink:href="#DejaVuSans-33"/>
      <use x="385.351562" xlink:href="#DejaVuSans-2e"/>
      <use x="417.138672" xlink:href="#DejaVuSans-30"/>
      <use x="480.761719" xlink:href="#DejaVuSans-2d"/>
      <use x="516.845703" xlink:href="#DejaVuSans-6d"/>
      <use x="614.257812" xlink:href="#DejaVuSans-70"/>
      <use x="677.734375" xlink:href="#DejaVuSans-69"/>
      <use x="705.517578" xlink:href="#DejaVuSans-2d"/>
      <use x="741.601562" xlink:href="#DejaVuSans-6d"/>
      <use x="839.013672" xlink:href="#DejaVuSans-76"/>
      <use x="898.193359" xlink:href="#DejaVuSans-61"/>
      <use x="959.472656" xlink:href="#DejaVuSans-70"/>
      <use x="1022.949219" xlink:href="#DejaVuSans-69"/>
      <use x="1050.732422" xlink:href="#DejaVuSans-63"/>
      <use x="1105.712891" xlink:href="#DejaVuSans-68"/>
      <use x="1169.091797" xlink:href="#DejaVuSans-32"/>
      <use x="1232.714844" xlink:href="#DejaVuSans-2d"/>
      <use x="1268.798828" xlink:href="#DejaVuSans-6b"/>
      <use x="1326.693359" xlink:href="#DejaVuSans-61"/>
      <use x="1387.972656" xlink:href="#DejaVuSans-74"/>
      <use x="1427.181641" xlink:href="#DejaVuSans-72"/>
      <use x="1468.294922" xlink:href="#DejaVuSans-69"/>
      <use x="1496.078125" xlink:href="#DejaVuSans-6e"/>
      <use x="1559.457031" xlink:href="#DejaVuSans-61"/>
      <use x="1620.736328" xlink:href="#DejaVuSans-2d"/>
      <use x="1656.820312" xlink:href="#DejaVuSans-31"/>
      <use x="1720.443359" xlink:href="#DejaVuSans-6b"/>
      <use x="1778.353516" xlink:href="#DejaVuSans-6d"/>
     </g>
    </g>
    <g id="line2d_66">
     <path d="M 270.83125 170.287187 
L 290.83125 170.287187 
" style="fill:none;stroke:#e377c2;stroke-dasharray:5.55,2.4;stroke-dashoffset:0;stroke-width:1.5;"/>
    </g>
    <g id="line2d_67">
     <g>
      <use style="fill:#e377c2;stroke:#e377c2;" x="280.83125" xlink:href="#mf88dd1a80b" y="170.287187"/>
     </g>
    </g>
    <g id="text_16">
     <!-- gnu-8.1.0-mpi-fma-mvapich2-katrina-3km -->
     <g transform="translate(298.83125 173.787187)scale(0.1 -0.1)">
      <use xlink:href="#DejaVuSans-67"/>
      <use x="63.476562" xlink:href="#DejaVuSans-6e"/>
      <use x="126.855469" xlink:href="#DejaVuSans-75"/>
      <use x="190.234375" xlink:href="#DejaVuSans-2d"/>
      <use x="226.318359" xlink:href="#DejaVuSans-38"/>
      <use x="289.941406" xlink:href="#DejaVuSans-2e"/>
      <use x="321.728516" xlink:href="#DejaVuSans-31"/>
      <use x="385.351562" xlink:href="#DejaVuSans-2e"/>
      <use x="417.138672" xlink:href="#DejaVuSans-30"/>
      <use x="480.761719" xlink:href="#DejaVuSans-2d"/>
      <use x="516.845703" xlink:href="#DejaVuSans-6d"/>
      <use x="614.257812" xlink:href="#DejaVuSans-70"/>
      <use x="677.734375" xlink:href="#DejaVuSans-69"/>
      <use x="705.517578" xlink:href="#DejaVuSans-2d"/>
      <use x="741.601562" xlink:href="#DejaVuSans-66"/>
      <use x="776.806641" xlink:href="#DejaVuSans-6d"/>
      <use x="874.21875" xlink:href="#DejaVuSans-61"/>
      <use x="935.498047" xlink:href="#DejaVuSans-2d"/>
      <use x="971.582031" xlink:href="#DejaVuSans-6d"/>
      <use x="1068.994141" xlink:href="#DejaVuSans-76"/>
      <use x="1128.173828" xlink:href="#DejaVuSans-61"/>
      <use x="1189.453125" xlink:href="#DejaVuSans-70"/>
      <use x="1252.929688" xlink:href="#DejaVuSans-69"/>
      <use x="1280.712891" xlink:href="#DejaVuSans-63"/>
      <use x="1335.693359" xlink:href="#DejaVuSans-68"/>
      <use x="1399.072266" xlink:href="#DejaVuSans-32"/>
      <use x="1462.695312" xlink:href="#DejaVuSans-2d"/>
      <use x="1498.779297" xlink:href="#DejaVuSans-6b"/>
      <use x="1556.673828" xlink:href="#DejaVuSans-61"/>
      <use x="1617.953125" xlink:href="#DejaVuSans-74"/>
      <use x="1657.162109" xlink:href="#DejaVuSans-72"/>
      <use x="1698.275391" xlink:href="#DejaVuSans-69"/>
      <use x="1726.058594" xlink:href="#DejaVuSans-6e"/>
      <use x="1789.4375" xlink:href="#DejaVuSans-61"/>
      <use x="1850.716797" xlink:href="#DejaVuSans-2d"/>
      <use x="1886.800781" xlink:href="#DejaVuSans-33"/>
      <use x="1950.423828" xlink:href="#DejaVuSans-6b"/>
      <use x="2008.333984" xlink:href="#DejaVuSans-6d"/>
     </g>
    </g>
    <g id="line2d_68">
     <path d="M 270.83125 184.965312 
L 290.83125 184.965312 
" style="fill:none;stroke:#7f7f7f;stroke-dasharray:5.55,2.4;stroke-dashoffset:0;stroke-width:1.5;"/>
    </g>
    <g id="line2d_69">
     <g>
      <use style="fill:#7f7f7f;stroke:#7f7f7f;" x="280.83125" xlink:href="#mf3c5a906f2" y="184.965312"/>
     </g>
    </g>
    <g id="text_17">
     <!-- gnu-6.3.0-mpi-mpt218-katrina-3km -->
     <g transform="translate(298.83125 188.465312)scale(0.1 -0.1)">
      <use xlink:href="#DejaVuSans-67"/>
      <use x="63.476562" xlink:href="#DejaVuSans-6e"/>
      <use x="126.855469" xlink:href="#DejaVuSans-75"/>
      <use x="190.234375" xlink:href="#DejaVuSans-2d"/>
      <use x="226.318359" xlink:href="#DejaVuSans-36"/>
      <use x="289.941406" xlink:href="#DejaVuSans-2e"/>
      <use x="321.728516" xlink:href="#DejaVuSans-33"/>
      <use x="385.351562" xlink:href="#DejaVuSans-2e"/>
      <use x="417.138672" xlink:href="#DejaVuSans-30"/>
      <use x="480.761719" xlink:href="#DejaVuSans-2d"/>
      <use x="516.845703" xlink:href="#DejaVuSans-6d"/>
      <use x="614.257812" xlink:href="#DejaVuSans-70"/>
      <use x="677.734375" xlink:href="#DejaVuSans-69"/>
      <use x="705.517578" xlink:href="#DejaVuSans-2d"/>
      <use x="741.601562" xlink:href="#DejaVuSans-6d"/>
      <use x="839.013672" xlink:href="#DejaVuSans-70"/>
      <use x="902.490234" xlink:href="#DejaVuSans-74"/>
      <use x="941.699219" xlink:href="#DejaVuSans-32"/>
      <use x="1005.322266" xlink:href="#DejaVuSans-31"/>
      <use x="1068.945312" xlink:href="#DejaVuSans-38"/>
      <use x="1132.568359" xlink:href="#DejaVuSans-2d"/>
      <use x="1168.652344" xlink:href="#DejaVuSans-6b"/>
      <use x="1226.546875" xlink:href="#DejaVuSans-61"/>
      <use x="1287.826172" xlink:href="#DejaVuSans-74"/>
      <use x="1327.035156" xlink:href="#DejaVuSans-72"/>
      <use x="1368.148438" xlink:href="#DejaVuSans-69"/>
      <use x="1395.931641" xlink:href="#DejaVuSans-6e"/>
      <use x="1459.310547" xlink:href="#DejaVuSans-61"/>
      <use x="1520.589844" xlink:href="#DejaVuSans-2d"/>
      <use x="1556.673828" xlink:href="#DejaVuSans-33"/>
      <use x="1620.296875" xlink:href="#DejaVuSans-6b"/>
      <use x="1678.207031" xlink:href="#DejaVuSans-6d"/>
     </g>
    </g>
    <g id="line2d_70">
     <path d="M 270.83125 199.643438 
L 290.83125 199.643438 
" style="fill:none;stroke:#bcbd22;stroke-dasharray:5.55,2.4;stroke-dashoffset:0;stroke-width:1.5;"/>
    </g>
    <g id="line2d_71">
     <g>
      <use style="fill:#bcbd22;stroke:#bcbd22;" x="280.83125" xlink:href="#mf2353a50fe" y="199.643438"/>
     </g>
    </g>
    <g id="text_18">
     <!-- intel-18.0.1-mpi-15-mpt218-katrina-3km -->
     <defs>
      <path d="M 10.796875 72.90625 
L 49.515625 72.90625 
L 49.515625 64.59375 
L 19.828125 64.59375 
L 19.828125 46.734375 
Q 21.96875 47.46875 24.109375 47.828125 
Q 26.265625 48.1875 28.421875 48.1875 
Q 40.625 48.1875 47.75 41.5 
Q 54.890625 34.8125 54.890625 23.390625 
Q 54.890625 11.625 47.5625 5.09375 
Q 40.234375 -1.421875 26.90625 -1.421875 
Q 22.3125 -1.421875 17.546875 -0.640625 
Q 12.796875 0.140625 7.71875 1.703125 
L 7.71875 11.625 
Q 12.109375 9.234375 16.796875 8.0625 
Q 21.484375 6.890625 26.703125 6.890625 
Q 35.15625 6.890625 40.078125 11.328125 
Q 45.015625 15.765625 45.015625 23.390625 
Q 45.015625 31 40.078125 35.4375 
Q 35.15625 39.890625 26.703125 39.890625 
Q 22.75 39.890625 18.8125 39.015625 
Q 14.890625 38.140625 10.796875 36.28125 
z
" id="DejaVuSans-35"/>
     </defs>
     <g transform="translate(298.83125 203.143438)scale(0.1 -0.1)">
      <use xlink:href="#DejaVuSans-69"/>
      <use x="27.783203" xlink:href="#DejaVuSans-6e"/>
      <use x="91.162109" xlink:href="#DejaVuSans-74"/>
      <use x="130.371094" xlink:href="#DejaVuSans-65"/>
      <use x="191.894531" xlink:href="#DejaVuSans-6c"/>
      <use x="219.677734" xlink:href="#DejaVuSans-2d"/>
      <use x="255.761719" xlink:href="#DejaVuSans-31"/>
      <use x="319.384766" xlink:href="#DejaVuSans-38"/>
      <use x="383.007812" xlink:href="#DejaVuSans-2e"/>
      <use x="414.794922" xlink:href="#DejaVuSans-30"/>
      <use x="478.417969" xlink:href="#DejaVuSans-2e"/>
      <use x="510.205078" xlink:href="#DejaVuSans-31"/>
      <use x="573.828125" xlink:href="#DejaVuSans-2d"/>
      <use x="609.912109" xlink:href="#DejaVuSans-6d"/>
      <use x="707.324219" xlink:href="#DejaVuSans-70"/>
      <use x="770.800781" xlink:href="#DejaVuSans-69"/>
      <use x="798.583984" xlink:href="#DejaVuSans-2d"/>
      <use x="834.667969" xlink:href="#DejaVuSans-31"/>
      <use x="898.291016" xlink:href="#DejaVuSans-35"/>
      <use x="961.914062" xlink:href="#DejaVuSans-2d"/>
      <use x="997.998047" xlink:href="#DejaVuSans-6d"/>
      <use x="1095.410156" xlink:href="#DejaVuSans-70"/>
      <use x="1158.886719" xlink:href="#DejaVuSans-74"/>
      <use x="1198.095703" xlink:href="#DejaVuSans-32"/>
      <use x="1261.71875" xlink:href="#DejaVuSans-31"/>
      <use x="1325.341797" xlink:href="#DejaVuSans-38"/>
      <use x="1388.964844" xlink:href="#DejaVuSans-2d"/>
      <use x="1425.048828" xlink:href="#DejaVuSans-6b"/>
      <use x="1482.943359" xlink:href="#DejaVuSans-61"/>
      <use x="1544.222656" xlink:href="#DejaVuSans-74"/>
      <use x="1583.431641" xlink:href="#DejaVuSans-72"/>
      <use x="1624.544922" xlink:href="#DejaVuSans-69"/>
      <use x="1652.328125" xlink:href="#DejaVuSans-6e"/>
      <use x="1715.707031" xlink:href="#DejaVuSans-61"/>
      <use x="1776.986328" xlink:href="#DejaVuSans-2d"/>
      <use x="1813.070312" xlink:href="#DejaVuSans-33"/>
      <use x="1876.693359" xlink:href="#DejaVuSans-6b"/>
      <use x="1934.603516" xlink:href="#DejaVuSans-6d"/>
     </g>
    </g>
   </g>
  </g>
 </g>
 <defs>
  <clipPath id="p3ce3f11ad5">
   <rect height="434.88" width="446.4" x="72" y="69.12"/>
  </clipPath>
 </defs>
</svg>
